<svg width="88" height="106" viewBox="0 0 88 106" fill="none" xmlns="http://www.w3.org/2000/svg">
<style>
path{
    fill:#000;
}
@media (prefers-color-scheme:dark){
    path{
    fill:#fff;
}
}
</style>    
<path d="M45.584 52.056V45.912H87.568V88.408C84.1547 93.8693 79.2907 98.0933 72.976 101.08C66.6614 104.067 58.9813 105.56 49.936 105.56C39.696 105.56 30.864 103.427 23.44 99.16C16.016 94.8933 10.256 88.8347 6.16001 80.984C2.14935 73.048 0.144012 63.6613 0.144012 52.824C0.144012 42.328 2.10668 33.1547 6.03201 25.304C10.0427 17.4533 15.5893 11.352 22.672 6.99998C29.7547 2.64798 37.904 0.471985 47.12 0.471985C56.7627 0.471985 64.912 2.26398 71.568 5.84798C78.3094 9.34665 83.1307 14.0827 86.032 20.056L81.936 23.896C78.2667 17.5813 73.4454 13.144 67.472 10.584C61.4987 7.93865 54.7147 6.61599 47.12 6.61599C39.0133 6.61599 31.888 8.53599 25.744 12.376C19.6 16.216 14.8213 21.6347 11.408 28.632C7.99468 35.544 6.28801 43.608 6.28801 52.824C6.28801 62.3813 8.03735 70.6587 11.536 77.656C15.12 84.6533 20.1547 90.072 26.64 93.912C33.2107 97.6667 40.976 99.544 49.936 99.544C64.784 99.544 75.28 95.2347 81.424 86.616V52.056H45.584ZM45.584 65.368V59.224H73.616V80.856C71.3974 84.44 68.3254 87.2987 64.4 89.432C60.4747 91.5653 55.6533 92.632 49.936 92.632C44.2187 92.632 38.928 91.096 34.064 88.024C29.2 84.952 25.3173 80.472 22.416 74.584C19.5147 68.6107 18.064 61.3573 18.064 52.824C18.064 44.4613 19.4293 37.4213 22.16 31.704C24.976 25.9013 28.7733 21.5067 33.552 18.52C38.3307 15.5333 43.7067 14.04 49.68 14.04C54.7147 14.04 59.6214 15.2347 64.4 17.624C69.1787 19.928 73.1894 23.768 76.432 29.144L71.696 33.624C69.4774 29.4427 66.4907 26.1573 62.736 23.768C59.0667 21.3787 54.7147 20.184 49.68 20.184C44.7307 20.184 40.336 21.464 36.496 24.024C32.656 26.584 29.6267 30.296 27.408 35.16C25.2747 40.024 24.208 45.912 24.208 52.824C24.208 59.9067 25.36 65.9653 27.664 71C29.968 76.0347 33.04 79.8747 36.88 82.52C40.8053 85.1653 45.1573 86.488 49.936 86.488C54.288 86.488 57.9573 85.8053 60.944 84.44C63.9307 82.9893 66.1067 81.1973 67.472 79.064V65.368H45.584Z" />
</svg>
